<?xml version="1.0" encoding="UTF-8"?>
<svg xmlns="http://www.w3.org/2000/svg" viewBox="-9.258643 -0.884023 27.310027 4.903992">
  <desc>Units: in. Datum rotation supported.</desc>
  <style>
    .FRETS   { stroke:black; fill:none; stroke-width:0.020000; }
    .SLOTS   { stroke:#444;  fill:none; stroke-width:0.012000; }
    .STRINGS { stroke:#999;  fill:none; stroke-width:0.010000; }
    .OUTLINE { stroke:#07c;  fill:none; stroke-width:0.016000; }
    .NUT, .BRIDGE { stroke:#c07; fill:none; stroke-width:0.016000; }
  </style>
  <g id="OUTLINE" class="OUTLINE">
    <line x1="-8.978175" y1="-0.409056" x2="-8.629368" y2="1.327954" />
    <line x1="-8.629368" y1="1.327954" x2="16.751808" y2="3.799474" />
    <line x1="16.751808" y1="3.799474" x2="17.940871" y2="1.695100" />
    <line x1="17.940871" y1="1.695100" x2="-8.978175" y2="-0.409056" />
  </g>
  <g id="NUT" class="NUT">
    <line x1="-8.978175" y1="-0.409056" x2="-8.629368" y2="1.327954" />
  </g>
  <g id="BRIDGE" class="BRIDGE">
    <line x1="17.940871" y1="1.695100" x2="16.751808" y2="3.799474" />
  </g>
  <g id="FRETS" class="FRETS">
    <line x1="-8.957061" y1="-0.884023" x2="-8.650483" y2="1.802921" />
    <line x1="-7.444010" y1="-0.751648" x2="-7.228147" y2="1.927360" />
    <line x1="-6.015881" y1="-0.626703" x2="-5.885641" y2="2.044814" />
    <line x1="-4.667907" y1="-0.508771" x2="-4.618483" y2="2.155676" />
    <line x1="-3.395588" y1="-0.397457" x2="-3.422446" y2="2.260315" />
    <line x1="-2.194680" y1="-0.292392" x2="-2.293538" y2="2.359082" />
    <line x1="-1.061172" y1="-0.193223" x2="-1.227991" y2="2.452305" />
    <line x1="0.008716" y1="-0.099619" x2="-0.222247" y2="2.540296" />
    <line x1="1.018556" y1="-0.011270" x2="0.727048" y2="2.623349" />
    <line x1="1.971717" y1="0.072121" x2="1.623063" y2="2.701740" />
    <line x1="2.871382" y1="0.150831" x2="2.468789" y2="2.775732" />
    <line x1="3.720553" y1="0.225124" x2="3.267048" y2="2.845570" />
    <line x1="4.522064" y1="0.295247" x2="4.020504" y2="2.911489" />
    <line x1="5.278589" y1="0.361435" x2="4.731672" y2="2.973708" />
    <line x1="5.992653" y1="0.423907" x2="5.402925" y2="3.032435" />
    <line x1="6.666640" y1="0.482873" x2="6.036504" y2="3.087866" />
    <line x1="7.302800" y1="0.538530" x2="6.634522" y2="3.140186" />
    <line x1="7.903254" y1="0.591063" x2="7.198977" y2="3.189569" />
    <line x1="8.470007" y1="0.640648" x2="7.731751" y2="3.236181" />
    <line x1="9.004952" y1="0.687449" x2="8.234622" y2="3.280177" />
    <line x1="9.509872" y1="0.731624" x2="8.709269" y2="3.321703" />
    <line x1="9.986453" y1="0.773319" x2="9.157277" y2="3.360899" />
    <line x1="10.436285" y1="0.812675" x2="9.580140" y2="3.397894" />
    <line x1="10.860870" y1="0.849821" x2="9.979270" y2="3.432814" />
    <line x1="11.261626" y1="0.884883" x2="10.355997" y2="3.465773" />
  </g>
  <g id="SLOTS" class="SLOTS">
  </g>
  <g id="STRINGS" class="STRINGS">
    <line x1="-9.045111" y1="-0.791345" x2="18.051385" y2="1.579292" />
    <line x1="-9.075616" y1="-0.442677" x2="18.020880" y2="1.927960" />
    <line x1="-9.106120" y1="-0.094008" x2="17.990376" y2="2.276628" />
    <line x1="-9.136625" y1="0.254660" x2="17.959871" y2="2.625296" />
    <line x1="-9.167129" y1="0.603328" x2="17.929367" y2="2.973964" />
    <line x1="-9.197634" y1="0.951996" x2="17.898862" y2="3.322632" />
    <line x1="-9.228138" y1="1.300664" x2="17.868358" y2="3.671300" />
    <line x1="-9.258643" y1="1.649332" x2="17.837853" y2="4.019969" />
  </g>
</svg>
