0
SECTION
2
ENTITIES
0
LINE
8
OUTLINE
10
0.000000
20
0.035000
11
0.000000
21
1.735000
0
LINE
8
OUTLINE
10
0.000000
20
1.735000
11
25.500000
21
1.985000
0
LINE
8
OUTLINE
10
25.500000
20
1.985000
11
25.500000
21
-0.215000
0
LINE
8
OUTLINE
10
25.500000
20
-0.215000
11
0.000000
21
0.035000
0
LINE
8
NUT
10
0.000000
20
0.035000
11
0.000000
21
1.735000
0
LINE
8
BRIDGE
10
25.500000
20
-0.215000
11
25.500000
21
1.985000
0
LINE
8
FRETS
10
0.000000
20
-0.100000
11
0.000000
21
1.870000
0
LINE
8
FRETS
10
1.431205
20
-0.100000
11
1.431205
21
1.870000
0
LINE
8
FRETS
10
2.782083
20
-0.100000
11
2.782083
21
1.870000
0
LINE
8
FRETS
10
4.057141
20
-0.100000
11
4.057141
21
1.870000
0
LINE
8
FRETS
10
5.260637
20
-0.100000
11
5.260637
21
1.870000
0
LINE
8
FRETS
10
6.396585
20
-0.100000
11
6.396585
21
1.870000
0
LINE
8
FRETS
10
7.468777
20
-0.100000
11
7.468777
21
1.870000
0
LINE
8
FRETS
10
8.480792
20
-0.100000
11
8.480792
21
1.870000
0
LINE
8
FRETS
10
9.436007
20
-0.100000
11
9.436007
21
1.870000
0
LINE
8
FRETS
10
10.337609
20
-0.100000
11
10.337609
21
1.870000
0
LINE
8
FRETS
10
11.188609
20
-0.100000
11
11.188609
21
1.870000
0
LINE
8
FRETS
10
11.991846
20
-0.100000
11
11.991846
21
1.870000
0
LINE
8
FRETS
10
12.750000
20
-0.100000
11
12.750000
21
1.870000
0
LINE
8
FRETS
10
13.465603
20
-0.100000
11
13.465603
21
1.870000
0
LINE
8
FRETS
10
14.141041
20
-0.100000
11
14.141041
21
1.870000
0
LINE
8
FRETS
10
14.778571
20
-0.100000
11
14.778571
21
1.870000
0
LINE
8
FRETS
10
15.380318
20
-0.100000
11
15.380318
21
1.870000
0
LINE
8
FRETS
10
15.948292
20
-0.100000
11
15.948292
21
1.870000
0
LINE
8
FRETS
10
16.484389
20
-0.100000
11
16.484389
21
1.870000
0
LINE
8
FRETS
10
16.990396
20
-0.100000
11
16.990396
21
1.870000
0
LINE
8
FRETS
10
17.468003
20
-0.100000
11
17.468003
21
1.870000
0
LINE
8
FRETS
10
17.918805
20
-0.100000
11
17.918805
21
1.870000
0
LINE
8
FRETS
10
18.344304
20
-0.100000
11
18.344304
21
1.870000
0
LINE
8
FRETS
10
18.745923
20
-0.100000
11
18.745923
21
1.870000
0
LINE
8
FRETS
10
19.125000
20
-0.100000
11
19.125000
21
1.870000
0
LINE
8
SLOTS
10
0.011500
20
-0.100000
11
0.011500
21
1.870000
0
LINE
8
SLOTS
10
1.442705
20
-0.100000
11
1.442705
21
1.870000
0
LINE
8
SLOTS
10
2.793583
20
-0.100000
11
2.793583
21
1.870000
0
LINE
8
SLOTS
10
4.068641
20
-0.100000
11
4.068641
21
1.870000
0
LINE
8
SLOTS
10
5.272137
20
-0.100000
11
5.272137
21
1.870000
0
LINE
8
SLOTS
10
6.408085
20
-0.100000
11
6.408085
21
1.870000
0
LINE
8
SLOTS
10
7.480277
20
-0.100000
11
7.480277
21
1.870000
0
LINE
8
SLOTS
10
8.492292
20
-0.100000
11
8.492292
21
1.870000
0
LINE
8
SLOTS
10
9.447507
20
-0.100000
11
9.447507
21
1.870000
0
LINE
8
SLOTS
10
10.349109
20
-0.100000
11
10.349109
21
1.870000
0
LINE
8
SLOTS
10
11.200109
20
-0.100000
11
11.200109
21
1.870000
0
LINE
8
SLOTS
10
12.003346
20
-0.100000
11
12.003346
21
1.870000
0
LINE
8
SLOTS
10
12.761500
20
-0.100000
11
12.761500
21
1.870000
0
LINE
8
SLOTS
10
13.477103
20
-0.100000
11
13.477103
21
1.870000
0
LINE
8
SLOTS
10
14.152541
20
-0.100000
11
14.152541
21
1.870000
0
LINE
8
SLOTS
10
14.790071
20
-0.100000
11
14.790071
21
1.870000
0
LINE
8
SLOTS
10
15.391818
20
-0.100000
11
15.391818
21
1.870000
0
LINE
8
SLOTS
10
15.959792
20
-0.100000
11
15.959792
21
1.870000
0
LINE
8
SLOTS
10
16.495889
20
-0.100000
11
16.495889
21
1.870000
0
LINE
8
SLOTS
10
17.001896
20
-0.100000
11
17.001896
21
1.870000
0
LINE
8
SLOTS
10
17.479503
20
-0.100000
11
17.479503
21
1.870000
0
LINE
8
SLOTS
10
17.930305
20
-0.100000
11
17.930305
21
1.870000
0
LINE
8
SLOTS
10
18.355804
20
-0.100000
11
18.355804
21
1.870000
0
LINE
8
SLOTS
10
18.757423
20
-0.100000
11
18.757423
21
1.870000
0
LINE
8
SLOTS
10
19.136500
20
-0.100000
11
19.136500
21
1.870000
0
LINE
8
SLOTS
10
-0.011500
20
-0.100000
11
-0.011500
21
1.870000
0
LINE
8
SLOTS
10
1.419705
20
-0.100000
11
1.419705
21
1.870000
0
LINE
8
SLOTS
10
2.770583
20
-0.100000
11
2.770583
21
1.870000
0
LINE
8
SLOTS
10
4.045641
20
-0.100000
11
4.045641
21
1.870000
0
LINE
8
SLOTS
10
5.249137
20
-0.100000
11
5.249137
21
1.870000
0
LINE
8
SLOTS
10
6.385085
20
-0.100000
11
6.385085
21
1.870000
0
LINE
8
SLOTS
10
7.457277
20
-0.100000
11
7.457277
21
1.870000
0
LINE
8
SLOTS
10
8.469292
20
-0.100000
11
8.469292
21
1.870000
0
LINE
8
SLOTS
10
9.424507
20
-0.100000
11
9.424507
21
1.870000
0
LINE
8
SLOTS
10
10.326109
20
-0.100000
11
10.326109
21
1.870000
0
LINE
8
SLOTS
10
11.177109
20
-0.100000
11
11.177109
21
1.870000
0
LINE
8
SLOTS
10
11.980346
20
-0.100000
11
11.980346
21
1.870000
0
LINE
8
SLOTS
10
12.738500
20
-0.100000
11
12.738500
21
1.870000
0
LINE
8
SLOTS
10
13.454103
20
-0.100000
11
13.454103
21
1.870000
0
LINE
8
SLOTS
10
14.129541
20
-0.100000
11
14.129541
21
1.870000
0
LINE
8
SLOTS
10
14.767071
20
-0.100000
11
14.767071
21
1.870000
0
LINE
8
SLOTS
10
15.368818
20
-0.100000
11
15.368818
21
1.870000
0
LINE
8
SLOTS
10
15.936792
20
-0.100000
11
15.936792
21
1.870000
0
LINE
8
SLOTS
10
16.472889
20
-0.100000
11
16.472889
21
1.870000
0
LINE
8
SLOTS
10
16.978896
20
-0.100000
11
16.978896
21
1.870000
0
LINE
8
SLOTS
10
17.456503
20
-0.100000
11
17.456503
21
1.870000
0
LINE
8
SLOTS
10
17.907305
20
-0.100000
11
17.907305
21
1.870000
0
LINE
8
SLOTS
10
18.332804
20
-0.100000
11
18.332804
21
1.870000
0
LINE
8
SLOTS
10
18.734423
20
-0.100000
11
18.734423
21
1.870000
0
LINE
8
SLOTS
10
19.113500
20
-0.100000
11
19.113500
21
1.870000
0
ENDSEC
0
EOF
