<?xml version="1.0" encoding="UTF-8"?>
<svg xmlns="http://www.w3.org/2000/svg" viewBox="-2.466240 -2.537582 649.890490 85.690655">
  <desc>Units: mm. Datum rotation supported.</desc>
  <style>
    .FRETS   { stroke:black; fill:none; stroke-width:0.500000; }
    .SLOTS   { stroke:#444;  fill:none; stroke-width:0.300000; }
    .STRINGS { stroke:#999;  fill:none; stroke-width:0.250000; }
    .OUTLINE { stroke:#07c;  fill:none; stroke-width:0.400000; }
    .NUT, .BRIDGE { stroke:#c07; fill:none; stroke-width:0.400000; }
  </style>
  <g id="OUTLINE" class="OUTLINE">
    <line x1="-0.235981" y1="5.404851" x2="-2.119466" y2="48.543753" />
    <line x1="-2.119466" y1="48.543753" x2="644.986798" y2="83.153072" />
    <line x1="644.986798" y1="83.153072" x2="647.424250" y2="27.326258" />
    <line x1="647.424250" y1="27.326258" x2="-0.235981" y2="5.404851" />
  </g>
  <g id="NUT" class="NUT">
    <line x1="-0.235981" y1="5.404851" x2="-2.119466" y2="48.543753" />
  </g>
  <g id="BRIDGE" class="BRIDGE">
    <line x1="647.424250" y1="27.326258" x2="644.986798" y2="83.153072" />
  </g>
  <g id="FRETS" class="FRETS">
    <line x1="0.110793" y1="-2.537582" x2="-2.466240" y2="56.486186" />
    <line x1="36.445623" y1="-0.951170" x2="33.868589" y2="58.072599" />
    <line x1="70.741136" y1="0.546205" x2="68.164102" y2="59.569974" />
    <line x1="103.111789" y1="1.959538" x2="100.534755" y2="60.983307" />
    <line x1="133.665617" y1="3.293547" x2="131.088583" y2="62.317316" />
    <line x1="162.504590" y1="4.552684" x2="159.927557" y2="63.576453" />
    <line x1="189.724957" y1="5.741151" x2="187.147923" y2="64.764920" />
    <line x1="215.417561" y1="6.862914" x2="212.840527" y2="65.886683" />
    <line x1="239.668151" y1="7.921718" x2="237.091117" y2="66.945487" />
    <line x1="262.557659" y1="8.921095" x2="259.980626" y2="67.944864" />
    <line x1="284.162477" y1="9.864382" x2="281.585444" y2="68.888151" />
    <line x1="304.554711" y1="10.754726" x2="301.977678" y2="69.778495" />
    <line x1="323.802417" y1="11.595099" x2="321.225384" y2="70.618868" />
    <line x1="341.969832" y1="12.388306" x2="339.392799" y2="71.412074" />
    <line x1="359.117588" y1="13.136993" x2="356.540554" y2="72.160762" />
    <line x1="375.302914" y1="13.843659" x2="372.725881" y2="72.867428" />
    <line x1="390.579829" y1="14.510664" x2="388.002796" y2="73.534433" />
    <line x1="404.999316" y1="15.140232" x2="402.422283" y2="74.164001" />
    <line x1="418.609499" y1="15.734466" x2="416.032465" y2="74.758235" />
    <line x1="431.455801" y1="16.295347" x2="428.878768" y2="75.319116" />
    <line x1="443.581096" y1="16.824749" x2="441.004062" y2="75.848518" />
    <line x1="455.025849" y1="17.324438" x2="452.448816" y2="76.348207" />
    <line x1="465.828259" y1="17.796081" x2="463.251226" y2="76.819850" />
    <line x1="476.024376" y1="18.241253" x2="473.447343" y2="77.265022" />
    <line x1="485.648229" y1="18.661440" x2="483.071196" y2="77.685209" />
  </g>
  <g id="SLOTS" class="SLOTS">
  </g>
  <g id="STRINGS" class="STRINGS">
  </g>
</svg>
