<?xml version="1.0" encoding="UTF-8"?>
<svg xmlns="http://www.w3.org/2000/svg" viewBox="-9.079662 -0.600000 27.200000 2.600000">
  <desc>Units: in. Datum rotation supported.</desc>
  <style>
    .FRETS   { stroke:black; fill:none; stroke-width:0.020000; }
    .SLOTS   { stroke:#444;  fill:none; stroke-width:0.012000; }
    .STRINGS { stroke:#999;  fill:none; stroke-width:0.010000; }
    .OUTLINE { stroke:#07c;  fill:none; stroke-width:0.016000; }
    .NUT, .BRIDGE { stroke:#c07; fill:none; stroke-width:0.016000; }
  </style>
  <g id="OUTLINE" class="OUTLINE">
    <line x1="-8.979662" y1="-0.350000" x2="-8.480792" y2="1.750000" />
    <line x1="-8.480792" y1="1.750000" x2="17.019208" y2="2.000000" />
    <line x1="17.019208" y1="2.000000" x2="18.020338" y2="-0.600000" />
    <line x1="18.020338" y1="-0.600000" x2="-8.979662" y2="-0.350000" />
  </g>
  <g id="NUT" class="NUT">
    <line x1="-8.979662" y1="-0.350000" x2="-8.480792" y2="1.750000" />
  </g>
  <g id="BRIDGE" class="BRIDGE">
    <line x1="18.020338" y1="-0.600000" x2="17.019208" y2="2.000000" />
  </g>
  <g id="FRETS" class="FRETS">
    <line x1="-9.015296" y1="-0.100000" x2="-8.445158" y2="1.500000" />
    <line x1="-7.493888" y1="-0.100000" x2="-7.019967" y2="1.500000" />
    <line x1="-6.057871" y1="-0.100000" x2="-5.674765" y2="1.500000" />
    <line x1="-4.702452" y1="-0.100000" x2="-4.405063" y2="1.500000" />
    <line x1="-3.423106" y1="-0.100000" x2="-3.206625" y2="1.500000" />
    <line x1="-2.215565" y1="-0.100000" x2="-2.075450" y2="1.500000" />
    <line x1="-1.075797" y1="-0.100000" x2="-1.007763" y2="1.500000" />
    <line x1="0.000000" y1="-0.100000" x2="0.000000" y2="1.500000" />
    <line x1="1.015417" y1="-0.100000" x2="0.951202" y2="1.500000" />
    <line x1="1.973844" y1="-0.100000" x2="1.849015" y2="1.500000" />
    <line x1="2.878477" y1="-0.100000" x2="2.696440" y2="1.500000" />
    <line x1="3.732338" y1="-0.100000" x2="3.496302" y2="1.500000" />
    <line x1="4.538276" y1="-0.100000" x2="4.251270" y2="1.500000" />
    <line x1="5.298980" y1="-0.100000" x2="4.963866" y2="1.500000" />
    <line x1="6.016988" y1="-0.100000" x2="5.636466" y2="1.500000" />
    <line x1="6.694697" y1="-0.100000" x2="6.271318" y2="1.500000" />
    <line x1="7.334371" y1="-0.100000" x2="6.870536" y2="1.500000" />
    <line x1="7.938141" y1="-0.100000" x2="7.436125" y2="1.500000" />
    <line x1="8.508025" y1="-0.100000" x2="7.969968" y2="1.500000" />
    <line x1="9.045924" y1="-0.100000" x2="8.473849" y2="1.500000" />
    <line x1="9.553632" y1="-0.100000" x2="8.949450" y2="1.500000" />
    <line x1="10.032846" y1="-0.100000" x2="9.398357" y2="1.500000" />
    <line x1="10.485162" y1="-0.100000" x2="9.822070" y2="1.500000" />
    <line x1="10.912093" y1="-0.100000" x2="10.222000" y2="1.500000" />
    <line x1="11.315062" y1="-0.100000" x2="10.599484" y2="1.500000" />
  </g>
  <g id="SLOTS" class="SLOTS">
  </g>
  <g id="STRINGS" class="STRINGS">
    <line x1="-9.079662" y1="0.000000" x2="18.120338" y2="0.000000" />
    <line x1="-9.079662" y1="0.200000" x2="18.120338" y2="0.200000" />
    <line x1="-9.079662" y1="0.400000" x2="18.120338" y2="0.400000" />
    <line x1="-9.079662" y1="0.600000" x2="18.120338" y2="0.600000" />
    <line x1="-9.079662" y1="0.800000" x2="18.120338" y2="0.800000" />
    <line x1="-9.079662" y1="1.000000" x2="18.120338" y2="1.000000" />
    <line x1="-9.079662" y1="1.200000" x2="18.120338" y2="1.200000" />
    <line x1="-9.079662" y1="1.400000" x2="18.120338" y2="1.400000" />
  </g>
</svg>
