<?xml version="1.0" encoding="UTF-8"?>
<svg xmlns="http://www.w3.org/2000/svg" viewBox="-9.079662 -0.100000 27.200000 2.650000">
  <desc>Units: in. Datum rotation supported.</desc>
  <style>
    .FRETS   { stroke:black; fill:none; stroke-width:0.020000; }
    .SLOTS   { stroke:#444;  fill:none; stroke-width:0.012000; }
    .STRINGS { stroke:#999;  fill:none; stroke-width:0.010000; }
    .OUTLINE { stroke:#07c;  fill:none; stroke-width:0.016000; }
    .NUT, .BRIDGE { stroke:#c07; fill:none; stroke-width:0.016000; }
  </style>
  <g id="OUTLINE" class="OUTLINE">
    <line x1="-8.979662" y1="0.175000" x2="-8.454648" y2="2.275000" />
    <line x1="-8.454648" y1="2.275000" x2="16.966744" y2="2.525000" />
    <line x1="16.966744" y1="2.525000" x2="18.020338" y2="-0.075000" />
    <line x1="18.020338" y1="-0.075000" x2="-8.979662" y2="0.175000" />
  </g>
  <g id="NUT" class="NUT">
    <line x1="-8.979662" y1="0.175000" x2="-8.454648" y2="2.275000" />
  </g>
  <g id="BRIDGE" class="BRIDGE">
    <line x1="18.020338" y1="-0.075000" x2="16.966744" y2="2.525000" />
  </g>
  <g id="FRETS" class="FRETS">
    <line x1="-9.001091" y1="-0.100000" x2="-8.433219" y2="2.550000" />
    <line x1="-7.482081" y1="-0.100000" x2="-7.010042" y2="2.550000" />
    <line x1="-6.048326" y1="-0.100000" x2="-5.666743" y2="2.550000" />
    <line x1="-4.695043" y1="-0.100000" x2="-4.398836" y2="2.550000" />
    <line x1="-3.417713" y1="-0.100000" x2="-3.202092" y2="2.550000" />
    <line x1="-2.212074" y1="-0.100000" x2="-2.072516" y2="2.550000" />
    <line x1="-1.074102" y1="-0.100000" x2="-1.006338" y2="2.550000" />
    <line x1="0.000000" y1="-0.100000" x2="0.000000" y2="2.550000" />
    <line x1="1.013818" y1="-0.100000" x2="0.949856" y2="2.550000" />
    <line x1="1.970734" y1="-0.100000" x2="1.846401" y2="2.550000" />
    <line x1="2.873942" y1="-0.100000" x2="2.692628" y2="2.550000" />
    <line x1="3.726458" y1="-0.100000" x2="3.491358" y2="2.550000" />
    <line x1="4.531125" y1="-0.100000" x2="4.245261" y2="2.550000" />
    <line x1="5.290631" y1="-0.100000" x2="4.956848" y2="2.550000" />
    <line x1="6.007507" y1="-0.100000" x2="5.628499" y2="2.550000" />
    <line x1="6.684149" y1="-0.100000" x2="6.262452" y2="2.550000" />
    <line x1="7.322815" y1="-0.100000" x2="6.860824" y2="2.550000" />
    <line x1="7.925634" y1="-0.100000" x2="7.425612" y2="2.550000" />
    <line x1="8.494619" y1="-0.100000" x2="7.958701" y2="2.550000" />
    <line x1="9.031671" y1="-0.100000" x2="8.461870" y2="2.550000" />
    <line x1="9.538580" y1="-0.100000" x2="8.936798" y2="2.550000" />
    <line x1="10.017038" y1="-0.100000" x2="9.385071" y2="2.550000" />
    <line x1="10.468642" y1="-0.100000" x2="9.808184" y2="2.550000" />
    <line x1="10.894900" y1="-0.100000" x2="10.207549" y2="2.550000" />
    <line x1="11.297234" y1="-0.100000" x2="10.584500" y2="2.550000" />
  </g>
  <g id="SLOTS" class="SLOTS">
  </g>
  <g id="STRINGS" class="STRINGS">
    <line x1="-9.079662" y1="0.000000" x2="18.120338" y2="0.000000" />
    <line x1="-9.079662" y1="0.350000" x2="18.120338" y2="0.350000" />
    <line x1="-9.079662" y1="0.700000" x2="18.120338" y2="0.700000" />
    <line x1="-9.079662" y1="1.050000" x2="18.120338" y2="1.050000" />
    <line x1="-9.079662" y1="1.400000" x2="18.120338" y2="1.400000" />
    <line x1="-9.079662" y1="1.750000" x2="18.120338" y2="1.750000" />
    <line x1="-9.079662" y1="2.100000" x2="18.120338" y2="2.100000" />
    <line x1="-9.079662" y1="2.450000" x2="18.120338" y2="2.450000" />
  </g>
</svg>
