<?xml version="1.0" encoding="UTF-8"?>
<svg xmlns="http://www.w3.org/2000/svg" viewBox="-9.079662 -0.100000 27.200000 2.650000">
  <desc>Units: in. Datum rotation supported.</desc>
  <style>
    .FRETS   { stroke:black; fill:none; stroke-width:0.020000; }
    .SLOTS   { stroke:#444;  fill:none; stroke-width:0.012000; }
    .STRINGS { stroke:#999;  fill:none; stroke-width:0.010000; }
    .OUTLINE { stroke:#07c;  fill:none; stroke-width:0.016000; }
    .NUT, .BRIDGE { stroke:#c07; fill:none; stroke-width:0.016000; }
  </style>
  <g id="OUTLINE" class="OUTLINE">
    <line x1="-8.979662" y1="0.175000" x2="-8.480792" y2="2.275000" />
    <line x1="-8.480792" y1="2.275000" x2="17.019208" y2="2.525000" />
    <line x1="17.019208" y1="2.525000" x2="18.020338" y2="-0.075000" />
    <line x1="18.020338" y1="-0.075000" x2="-8.979662" y2="0.175000" />
  </g>
  <g id="NUT" class="NUT">
    <line x1="-8.979662" y1="0.175000" x2="-8.480792" y2="2.275000" />
  </g>
  <g id="BRIDGE" class="BRIDGE">
    <line x1="18.020338" y1="-0.075000" x2="17.019208" y2="2.525000" />
  </g>
  <g id="FRETS" class="FRETS">
    <line x1="-9.000024" y1="-0.100000" x2="-8.460430" y2="2.550000" />
    <line x1="-7.481194" y1="-0.100000" x2="-7.032661" y2="2.550000" />
    <line x1="-6.047609" y1="-0.100000" x2="-5.685027" y2="2.550000" />
    <line x1="-4.694486" y1="-0.100000" x2="-4.413029" y2="2.550000" />
    <line x1="-3.417307" y1="-0.100000" x2="-3.212424" y2="2.550000" />
    <line x1="-2.211812" y1="-0.100000" x2="-2.079203" y2="2.550000" />
    <line x1="-1.073975" y1="-0.100000" x2="-1.009585" y2="2.550000" />
    <line x1="0.000000" y1="-0.100000" x2="0.000000" y2="2.550000" />
    <line x1="1.013697" y1="-0.100000" x2="0.952922" y2="2.550000" />
    <line x1="1.970500" y1="-0.100000" x2="1.852359" y2="2.550000" />
    <line x1="2.873601" y1="-0.100000" x2="2.701316" y2="2.550000" />
    <line x1="3.726016" y1="-0.100000" x2="3.502624" y2="2.550000" />
    <line x1="4.530588" y1="-0.100000" x2="4.258958" y2="2.550000" />
    <line x1="5.290003" y1="-0.100000" x2="4.972843" y2="2.550000" />
    <line x1="6.006795" y1="-0.100000" x2="5.646659" y2="2.550000" />
    <line x1="6.683357" y1="-0.100000" x2="6.282658" y2="2.550000" />
    <line x1="7.321947" y1="-0.100000" x2="6.882960" y2="2.550000" />
    <line x1="7.924694" y1="-0.100000" x2="7.449572" y2="2.550000" />
    <line x1="8.493612" y1="-0.100000" x2="7.984381" y2="2.550000" />
    <line x1="9.030600" y1="-0.100000" x2="8.489173" y2="2.550000" />
    <line x1="9.537449" y1="-0.100000" x2="8.965633" y2="2.550000" />
    <line x1="10.015850" y1="-0.100000" x2="9.415353" y2="2.550000" />
    <line x1="10.467401" y1="-0.100000" x2="9.839831" y2="2.550000" />
    <line x1="10.893608" y1="-0.100000" x2="10.240485" y2="2.550000" />
    <line x1="11.295894" y1="-0.100000" x2="10.618652" y2="2.550000" />
  </g>
  <g id="SLOTS" class="SLOTS">
  </g>
  <g id="STRINGS" class="STRINGS">
    <line x1="-9.079662" y1="0.000000" x2="18.120338" y2="0.000000" />
    <line x1="-9.079662" y1="0.350000" x2="18.120338" y2="0.350000" />
    <line x1="-9.079662" y1="0.700000" x2="18.120338" y2="0.700000" />
    <line x1="-9.079662" y1="1.050000" x2="18.120338" y2="1.050000" />
    <line x1="-9.079662" y1="1.400000" x2="18.120338" y2="1.400000" />
    <line x1="-9.079662" y1="1.750000" x2="18.120338" y2="1.750000" />
    <line x1="-9.079662" y1="2.100000" x2="18.120338" y2="2.100000" />
    <line x1="-9.079662" y1="2.450000" x2="18.120338" y2="2.450000" />
  </g>
</svg>
